<?xml version="1.0" standalone="no"?>
<svg xmlns:xlink="http://www.w3.org/1999/xlink" id="wave" style="transform:rotate(180deg); transition: 0.3s" viewBox="0 0 1440 460" version="1.1" xmlns="http://www.w3.org/2000/svg"><defs><linearGradient id="sw-gradient-0" x1="0" x2="0" y1="1" y2="0"><stop stop-color="rgba(64.106, 64.106, 64.106, 1)" offset="0%"/><stop stop-color="rgba(0, 0, 0, 0.68)" offset="100%"/></linearGradient></defs><path style="transform:translate(0, 0px); opacity:1" fill="url(#sw-gradient-0)" d="M0,138L120,115C240,92,480,46,720,61.3C960,77,1200,153,1440,191.7C1680,230,1920,230,2160,191.7C2400,153,2640,77,2880,61.3C3120,46,3360,92,3600,161C3840,230,4080,322,4320,368C4560,414,4800,414,5040,383.3C5280,353,5520,291,5760,283.7C6000,276,6240,322,6480,352.7C6720,383,6960,399,7200,337.3C7440,276,7680,138,7920,130.3C8160,123,8400,245,8640,299C8880,353,9120,337,9360,276C9600,215,9840,107,10080,92C10320,77,10560,153,10800,161C11040,169,11280,107,11520,115C11760,123,12000,199,12240,253C12480,307,12720,337,12960,337.3C13200,337,13440,307,13680,253C13920,199,14160,123,14400,130.3C14640,138,14880,230,15120,291.3C15360,353,15600,383,15840,383.3C16080,383,16320,353,16560,345C16800,337,17040,353,17160,360.3L17280,368L17280,460L17160,460C17040,460,16800,460,16560,460C16320,460,16080,460,15840,460C15600,460,15360,460,15120,460C14880,460,14640,460,14400,460C14160,460,13920,460,13680,460C13440,460,13200,460,12960,460C12720,460,12480,460,12240,460C12000,460,11760,460,11520,460C11280,460,11040,460,10800,460C10560,460,10320,460,10080,460C9840,460,9600,460,9360,460C9120,460,8880,460,8640,460C8400,460,8160,460,7920,460C7680,460,7440,460,7200,460C6960,460,6720,460,6480,460C6240,460,6000,460,5760,460C5520,460,5280,460,5040,460C4800,460,4560,460,4320,460C4080,460,3840,460,3600,460C3360,460,3120,460,2880,460C2640,460,2400,460,2160,460C1920,460,1680,460,1440,460C1200,460,960,460,720,460C480,460,240,460,120,460L0,460Z"/></svg>